<?xml version="1.0" encoding="utf-8"?>
<!-- Generator: Adobe Illustrator 21.0.2, SVG Export Plug-In . SVG Version: 6.00 Build 0)  -->
<svg version="1.1" id="Layer_1" xmlns="http://www.w3.org/2000/svg" xmlns:xlink="http://www.w3.org/1999/xlink" x="0px" y="0px"
	 viewBox="0 0 223 83.2" style="enable-background:new 0 0 223 83.2;" xml:space="preserve">
<style type="text/css">
	.st0{fill:#62AEB2;}
	.st1{fill:#E47128;}
	.st2{fill:#E5AD24;}
	.st3{fill:#00878F;}
	.st4{fill:#8C7965;}
</style>
<title>LogoArduinoDay_expanded</title>
<path class="st0" d="M55.6,20.2l0.4-0.7c-3.2-1.8-6.8-3-10.4-3.5c-1.4-0.2-2.9-0.3-4.4-0.3c-11.6,0-22,7-25.9,17.4l3.7,1.4
	c3.3-8.8,12.2-14.8,22.1-14.8c1.3,0,2.5,0.1,3.8,0.3c6.8,1,13.2,4.6,19.3,10.9l2.2-2.1C63.3,25.3,59.6,22.4,55.6,20.2L55.6,20.2z"/>
<path class="st0" d="M28.3,66.7C18.4,62.3,12,52.5,11.8,41.7c0-5.3,1.6-10.5,4.5-15c1.1-1.7,2.5-3.3,4-4.7l1.8,1.9
	c-1.3,1.3-2.6,2.7-3.6,4.3c-2.7,4-4.1,8.7-4.1,13.5c0,9.7,5.7,18.4,15,22.7L28.3,66.7z M77.1,44.9l-1.2-2.7
	c-0.1-0.2-0.2-0.5-0.4-0.8c-2,3.8-12.6,22.5-30.1,25c-1.4,0.3-2.8,0.5-4.3,0.7c-4,0-8-0.9-11.6-2.5L28.2,67c4,1.9,8.5,2.9,12.9,2.8
	c1.6,0,3.1-0.1,4.7-0.3c16.9-2.4,27.5-17.8,31.4-24.6L77.1,44.9z"/>
<path class="st1" d="M80.8,57.9c-3.2,4.4-7,8.5-11.2,11.9l1,1.2c4.2-3.4,7.9-7.4,11.1-11.7c7,9.5,18.5,20.7,35.3,23.1l0.4-2.8
	c-17.1-2.4-28.6-14.6-35.4-24.9C81.6,54.3,80.8,57.9,80.8,57.9z"/>
<path class="st2" d="M125.6,69.5c-2.2,0.1-4.5,0.1-6.7-0.3c-5.4-0.8-10.4-2.9-14.8-6.1l-1.5,2.1c4.7,3.4,10.2,5.7,15.9,6.5
	c1.7,0.2,3.3,0.4,5,0.4c0.7,0,1.4,0,2.1-0.1L125.6,69.5z"/>
<path class="st1" d="M78.4,44.3l-1.3,0.6l-1.2-2.7c-2.6-4.9-5.8-9.4-9.5-13.5l-2.2,2.1c3.4,3.5,6.3,7.5,8.6,11.7l4,7.1l3.5-2
	L78.4,44.3z"/>
<path class="st0" d="M123.5,67.2c-1.4,0-2.9-0.1-4.3-0.3c-18-2.6-28.6-20.9-30.5-24.5l2.8-1.5c1.1,2.1,11.3,20.5,28.2,22.9
	c1.3,0.2,2.6,0.3,3.9,0.3L123.5,67.2z"/>
<path class="st3" d="M148.6,34.6c-1.2-4-3.5-7.5-6.5-10.4c-4-3.8-9.1-6.3-14.6-7l0.5-3.6c6.2,0.9,12.1,3.7,16.6,8
	c3.5,3.3,6,7.4,7.4,12L148.6,34.6z"/>
<path class="st3" d="M100.4,23.1l-1.7-1.9c6.1-5.4,12.8-8.6,19.8-9.6c1.7-0.2,3.3-0.4,5-0.4c8.4-0.1,16.5,3.1,22.6,8.9l-1.8,1.9
	c-5.6-5.3-13.1-8.2-20.8-8.2c-1.5,0-3.1,0.1-4.6,0.3C112.3,15.1,106.1,18.1,100.4,23.1L100.4,23.1z"/>
<path class="st2" d="M87.2,48.3L78.3,44l2.1-4.5c3.9-8,9.2-15.1,15.8-21.1l3.7-3.3l6.5,7.4l-3.7,3.3C97.2,31,92.7,37,89.4,43.8
	L87.2,48.3z"/>
<path class="st3" d="M11.5,53.6c-5-11.6-2.3-25,6.9-33.7c2.1-2,4.5-3.7,7.1-5.1l1.5,2.7c-2.3,1.2-4.5,2.8-6.4,4.6
	C12.3,29.9,9.8,42,14.3,52.4L11.5,53.6z"/>
<path class="st2" d="M22.2,23.9l-1.9-2c5.6-5.3,13.1-8.3,20.8-8.2c5.5,0,10.9,1.4,15.7,4.1l-1.3,2.4c-4.4-2.5-9.4-3.7-14.4-3.7
	C34.1,16.4,27.3,19,22.2,23.9z M3.6,41.7H2c0-10.1,4.2-19.8,11.5-26.8l1.1,1.2C7.6,22.7,3.6,32,3.6,41.7z"/>
<path class="st3" d="M69,13.4c-6.2-5.1-13.7-8.5-21.7-9.7c-2-0.3-4.1-0.4-6.1-0.4c-7.9,0-15.7,2.2-22.3,6.5L17.6,8
	c7-4.5,15.2-6.9,23.5-6.9c2.2,0,4.3,0.2,6.4,0.5c8.4,1.3,16.3,4.8,22.8,10.2L69,13.4z M84.5,27.7l-4.3-3.1c7-9.9,19-22.1,36.7-24.7
	l0.8,5.3C101.7,7.5,90.8,18.7,84.5,27.7z"/>
<path class="st0" d="M89.5,28.4L86.4,26c6.1-8,16.4-18.1,31.3-20.2c1.9-0.3,3.9-0.4,5.8-0.4c4.9,0,9.8,0.9,14.4,2.7l-1.4,3.6
	c-4.1-1.6-8.5-2.5-13-2.4c-1.8,0-3.5,0.1-5.3,0.4C104.7,11.6,95.1,20.9,89.5,28.4z"/>
<path class="st0" d="M83.3,34.6L79,32.9l1.3-3.1l0.1-0.2c5.6-8.8,17.7-23.9,36.9-26.7c2.1-0.3,4.2-0.4,6.2-0.4v4.6
	c-1.9,0-3.7,0.1-5.6,0.4C101.5,9.8,90.7,22,84.4,31.9L83.3,34.6z"/>
<path class="st0" d="M83.2,29.9L81,27.1c-3.5-5-7.6-9.5-12.3-13.3l2.1-2.6c4.9,4,9.3,8.7,12.9,13.9l2.1,2.6L83.2,29.9z"/>
<path class="st1" d="M151.5,14.4C144,7.2,133.9,3.2,123.5,3.3c-2,0-4.1,0.1-6.1,0.4L117,1.5c2.1-0.3,4.3-0.5,6.4-0.5
	c11-0.1,21.6,4.1,29.6,11.7L151.5,14.4z"/>
<path class="st3" d="M46.7,75.8l-0.8-5.6C68.4,67,79.6,40.8,79.7,40.6c0.5-1.2,12.5-29.4,38.2-33.1l0.8,5.6
	C96.2,16.3,85,42.5,84.9,42.7C84.4,43.9,72.4,72.2,46.7,75.8z"/>
<path class="st3" d="M23.1,70.1l2.5-4.2c6.1,3.5,13.3,4.9,20.3,3.8l0.7,4.8c4.8-0.7,9.4-2.3,13.6-4.8l-4.1-7.2
	c-4.5,2.7-9.7,4.1-14.9,4.1c-7,0.1-13.7-2.6-18.8-7.4c-2.4-2.3-4.3-5-5.6-8l-7.1,3.1c1.7,3.9,4.2,7.5,7.3,10.4l-0.4,0.4
	C18.6,67.1,20.7,68.8,23.1,70.1z"/>
<path class="st3" d="M41.1,77.1c-9.7,0.1-19-3.6-26-10.3l1.6-1.6c6.6,6.3,15.4,9.7,24.5,9.7c1.8,0,3.6-0.1,5.4-0.4
	C65,71.8,76.2,56.1,81.3,47l1.3-3l2.1,0.9L83.3,48c-5.2,9.5-16.9,25.9-36.5,28.7C44.9,77,43,77.1,41.1,77.1z"/>
<path class="st3" d="M41.1,83.2C29.9,83.3,19,79,10.9,71.2l2.9-3c7.4,7,17.2,10.9,27.4,10.8c2,0,4-0.1,6-0.4
	c8-1.2,15.4-4.6,21.6-9.8l2.6,3.2c-6.8,5.7-14.9,9.3-23.6,10.7C45.5,83,43.3,83.2,41.1,83.2z"/>
<path class="st2" d="M47.3,79.9l-0.5-3.6c16.6-2.4,27.7-14.8,34-24.7c0.2-0.3,1.9-3.3,2.5-4.5l3.2,1.7c-0.7,1.4-2.6,4.5-2.6,4.7
	l0,0.1C77.1,64.1,65.3,77.3,47.3,79.9z"/>
<path class="st0" d="M23.2,69.9C11.4,63.3,5,50,7.1,36.6L9.6,37c-1.9,12.3,4,24.6,14.9,30.7L23.2,69.9z"/>
<path class="st1" d="M10.8,37.2l-4.9-0.8c1.4-9,6.5-17,13.9-22.2c7.8-5.5,17.4-7.8,26.9-6.4c2.2,0.3,4.3,0.8,6.4,1.5l-1.5,4.7
	c-1.8-0.6-3.7-1-5.6-1.3C28.8,10.3,13.4,21,10.8,37.2z"/>
<path class="st2" d="M10.2,72C5.7,67.7,2.2,62.6,0,56.9l5.8-2.3c1.9,4.9,4.9,9.3,8.7,12.9L10.2,72z"/>
<path class="st0" d="M41.1,80.4c-10.5,0.1-20.7-3.9-28.3-11.2C6,62.7,1.8,53.9,1.1,44.5v-0.1L1,41.7l3.6-0.1l0.1,2.7
	c0.7,8.5,4.4,16.4,10.6,22.3c6.9,6.6,16.2,10.3,25.8,10.2c1.9,0,3.8-0.1,5.7-0.4l0.5,3.6C45.3,80.2,43.2,80.4,41.1,80.4z"/>
<path class="st2" d="M57.7,67.7l-1.1-2l1-0.6c12.7-7.3,19.9-21.3,21.2-24l0.5-1l2,1l-0.5,1c-1.3,2.8-8.8,17.4-22.1,25L57.7,67.7z"/>
<path class="st3" d="M85.9,40.2c-0.7-1.7-1.5-3.3-2.4-4.9l0.6-0.3C78.7,25.3,66.8,8.7,47,5.8c-1.9-0.3-3.9-0.4-5.8-0.4v3.9
	c1.8,0,3.5,0.1,5.3,0.4c2.1,0.3,4.1,0.8,6.1,1.4l-1.4,4.3c18.3,6,27.5,27.6,27.6,27.8c0.5,1.2,12.7,29.9,39,33.7l1.1-7.6
	C97,66.1,86,40.4,85.9,40.2z"/>
<path class="st2" d="M158.2,41.7h-3.1c0-8.6-3.8-16.8-10.3-22.4c-7.3-6.2-16.8-8.9-26.2-7.5l-0.4-3.1c10.3-1.6,20.8,1.4,28.7,8.2
	C154,23.1,158.1,32.2,158.2,41.7z M37.2,28.7h8.4v26h-8.4V28.7z"/>
<path class="st3" d="M28.4,37.5h26v8.4h-26V37.5z"/>
<path class="st0" d="M165.8,45.4l-3.3-0.3c0.1-1.1,0.2-2.3,0.2-3.5c0-10.2-4.2-19.9-11.6-26.9l2.3-2.4c8,7.6,12.6,18.2,12.6,29.3
	C166,42.9,166,44.2,165.8,45.4z"/>
<path class="st3" d="M154.5,47.4l-2.2-0.4c1.8-9.2-1.2-18.7-8-25.1l1.5-1.6C153.2,27.2,156.4,37.4,154.5,47.4L154.5,47.4z"/>
<path class="st1" d="M150.7,47.9l-5-1.3c0.4-1.6,0.6-3.3,0.6-5c0-11.8-10.2-21.4-22.8-21.4c-1.2,0-2.5,0.1-3.7,0.3
	c-0.3,0-0.7,0.1-1,0.2l-0.9-5.1c0.4-0.1,0.8-0.1,1.2-0.2c1.5-0.2,3-0.3,4.5-0.3c15.4,0,28,11.9,28,26.6
	C151.5,43.8,151.2,45.9,150.7,47.9z"/>
<path class="st3" d="M109.3,21.4l-0.6-1.1C96.9,26.9,90,39.8,88.7,42.3l-1.3,2.6l-1.3-0.7l-0.5,1.2l4.7,2.1l2.1-4.7
	c1.2-2.3,10.9-19.3,26.4-22.1l-0.5-2.5C115.2,18.7,112.1,19.8,109.3,21.4z"/>
<path class="st0" d="M123.5,78.3c-2,0-3.9-0.1-5.9-0.4c-8.8-1.3-16.9-5.3-24.2-12.1l3.2-3.4c6.6,6.1,13.8,9.8,21.6,10.9
	c2.1,0.3,4.2,0.4,6.2,0.4l0.1,4.6C124.2,78.3,123.9,78.3,123.5,78.3z"/>
<path class="st4" d="M134.6,69h3.3c3.8,0,5,1.8,5,5c0,2.4-0.7,5.2-5,5.2h-3.3V69z M137.1,71v6h0.9c2.1,0,2.2-1.3,2.2-3
	c0-2-0.2-3-2.4-3H137.1z M143.8,79.1L147,69h2.8l3.2,10.1h-2.7l-0.6-2.1h-2.9l-0.5,2.1H143.8z M148.3,71.4l-0.9,3.7h1.9L148.3,71.4z
	 M158.1,73.1l1.8-4.1h2.5l-3.2,6.1v4h-2.5v-3.9l-3.3-6.2h2.7L158.1,73.1z"/>
<path class="st1" d="M171.9,71.9c0.1-0.9-0.7-1.7-1.6-1.8c-0.1,0-0.1,0-0.2,0c-0.8,0.1-1.6,0.4-2.1,1.1l-0.7-0.8
	c0.8-0.8,1.9-1.3,3.1-1.3c1.4-0.1,2.7,0.9,2.8,2.4c0,0.1,0,0.2,0,0.3c0,2.1-2.7,5-4.8,6.5h5.3v1.1h-6.9v-0.9
	C168.7,77.1,171.9,73.9,171.9,71.9L171.9,71.9z M183.6,74c0,2.5-0.7,5.5-3.9,5.5c-2.6,0-3.8-1.8-3.8-5c0-2.9,0.9-5.4,3.9-5.4
	C182.6,69.1,183.6,71,183.6,74z M177.9,77.6l3-7.2c-0.4-0.2-0.8-0.3-1.2-0.2c-2.1,0-2.6,2-2.6,4C177,75.3,177.3,76.6,177.9,77.6
	L177.9,77.6z M182.4,74.2c0.1-1.1-0.2-2.3-0.8-3.3l-3,7.3c0.4,0.2,0.8,0.3,1.2,0.3C182,78.4,182.4,76.2,182.4,74.2L182.4,74.2z
	 M185.9,78.3h2.9v-7.7l-2.6,0.5v-1l3.8-0.9v9.2h3v1.1h-7.1V78.3z M202.2,69.9l-4.4,9.4h-1.2l4.2-9h-5.4v-1.1h6.8L202.2,69.9z"/>
<g>
	<path class="st3" d="M134.2,54.3h6.7v2h-4.2v2.4h3.8v2h-3.8v3.6h-2.5V54.3z"/>
	<path class="st3" d="M142.2,54.3h2.5v8h4v2.1h-6.5V54.3z"/>
	<path class="st3" d="M154.1,54.2c0.6,0,1.1,0.1,1.6,0.2c0.5,0.1,1,0.3,1.4,0.6c0.4,0.3,0.8,0.6,1.1,1c0.3,0.4,0.5,0.9,0.7,1.5
		s0.3,1.3,0.3,2c0,0.7-0.1,1.4-0.3,2c-0.2,0.6-0.6,1.2-1,1.6s-1,0.8-1.6,1.1c-0.6,0.3-1.4,0.4-2.2,0.4c-0.7,0-1.4-0.1-2-0.3
		c-0.6-0.2-1.1-0.5-1.6-1c-0.4-0.4-0.8-0.9-1-1.6c-0.2-0.6-0.4-1.4-0.4-2.2c0-1,0.2-1.9,0.6-2.7c0.4-0.8,1-1.4,1.7-1.9
		C152.3,54.4,153.1,54.2,154.1,54.2z M154.1,62.5c0.8,0,1.4-0.2,1.8-0.7c0.4-0.5,0.6-1.3,0.6-2.4c0-0.6,0-1.1-0.1-1.5
		c-0.1-0.4-0.3-0.7-0.5-1c-0.2-0.2-0.5-0.4-0.8-0.5c-0.3-0.1-0.6-0.1-1.1-0.1c-0.5,0-1,0.1-1.3,0.3c-0.3,0.2-0.6,0.5-0.8,1
		c-0.2,0.5-0.3,1.1-0.3,1.9c0,1,0.2,1.8,0.6,2.3C152.7,62.3,153.3,62.5,154.1,62.5z"/>
	<path class="st3" d="M160.7,64.4v-10h3.8c0.7,0,1.3,0.1,1.8,0.2c0.5,0.2,0.9,0.4,1.2,0.7c0.3,0.3,0.5,0.7,0.7,1.1
		c0.1,0.4,0.2,0.8,0.2,1.3c0,1.4-0.5,2.4-1.6,3l2.3,3.7H166l-1.7-3.2h-1.1v3.2H160.7z M164.2,59.2c1,0,1.4-0.5,1.4-1.5
		c0-0.5-0.1-0.8-0.3-1c-0.2-0.2-0.6-0.3-1.2-0.3h-1v2.8H164.2z"/>
	<path class="st3" d="M170.1,54.3h2.5v10h-2.5V54.3z"/>
	<path class="st3" d="M174.7,64.4v-10h3.8c3.5,0,5.3,1.6,5.3,4.8c0,0.5,0,1-0.1,1.4c-0.1,0.4-0.2,0.8-0.3,1.3s-0.4,0.8-0.6,1.1
		c-0.3,0.3-0.6,0.6-1,0.8s-0.9,0.4-1.4,0.5s-1.2,0.2-1.9,0.2H174.7z M178.4,56.4h-1.2v6h1.4c0.5,0,0.9-0.1,1.3-0.2
		c0.3-0.1,0.6-0.3,0.8-0.6s0.3-0.5,0.4-0.9c0.1-0.3,0.1-0.7,0.1-1.2c0-0.5,0-1-0.1-1.3s-0.2-0.7-0.4-1c-0.2-0.3-0.5-0.5-0.8-0.6
		C179.4,56.4,179,56.4,178.4,56.4z"/>
	<path class="st3" d="M191.7,60.5v-6.1h2.4v6.6c0,0.4-0.1,0.8-0.2,1.1c-0.1,0.3-0.2,0.6-0.4,0.9c-0.2,0.2-0.4,0.5-0.6,0.6
		s-0.5,0.3-0.8,0.5c-0.3,0.1-0.5,0.2-0.9,0.3c-0.3,0.1-0.6,0.1-0.9,0.2c-0.3,0-0.5,0-0.8,0c-0.4,0-0.8,0-1.2-0.1
		c-0.4-0.1-0.8-0.2-1.2-0.3c-0.4-0.2-0.7-0.4-1-0.6c-0.3-0.3-0.5-0.6-0.7-1c-0.2-0.4-0.3-1-0.3-1.5v-6.6h2.5v6.1c0,0.4,0,0.8,0.1,1
		s0.2,0.5,0.4,0.6s0.4,0.3,0.6,0.3c0.2,0.1,0.5,0.1,0.9,0.1c0.6,0,1.1-0.2,1.5-0.5C191.5,61.7,191.7,61.2,191.7,60.5z"/>
	<path class="st3" d="M196,54.3h2.5v10H196V54.3z"/>
	<path class="st3" d="M203,61.3v3.1h-2.4v-10h2.7l2.2,3.2l2,3.1l0-3.3v-3.1h2.3v10h-2.5l-2.3-3.3l-2.1-3.3L203,61.3z"/>
	<path class="st3" d="M216.3,54.2c0.6,0,1.1,0.1,1.6,0.2c0.5,0.1,1,0.3,1.4,0.6c0.4,0.3,0.8,0.6,1.1,1c0.3,0.4,0.5,0.9,0.7,1.5
		s0.3,1.3,0.3,2c0,0.7-0.1,1.4-0.3,2c-0.2,0.6-0.6,1.2-1,1.6s-1,0.8-1.6,1.1c-0.6,0.3-1.4,0.4-2.2,0.4c-0.7,0-1.4-0.1-2-0.3
		c-0.6-0.2-1.1-0.5-1.6-1c-0.4-0.4-0.8-0.9-1-1.6c-0.2-0.6-0.4-1.4-0.4-2.2c0-1,0.2-1.9,0.6-2.7c0.4-0.8,1-1.4,1.7-1.9
		C214.4,54.4,215.3,54.2,216.3,54.2z M216.3,62.5c0.8,0,1.4-0.2,1.8-0.7c0.4-0.5,0.6-1.3,0.6-2.4c0-0.6,0-1.1-0.1-1.5
		c-0.1-0.4-0.3-0.7-0.5-1c-0.2-0.2-0.5-0.4-0.8-0.5c-0.3-0.1-0.6-0.1-1.1-0.1c-0.5,0-1,0.1-1.3,0.3c-0.3,0.2-0.6,0.5-0.8,1
		c-0.2,0.5-0.3,1.1-0.3,1.9c0,1,0.2,1.8,0.6,2.3C214.9,62.3,215.5,62.5,216.3,62.5z"/>
</g>
</svg>
